<?xml version="1.0" standalone="no"?>
<!DOCTYPE svg PUBLIC "-//W3C//DTD SVG 1.1//EN" "http://www.w3.org/Graphics/SVG/1.1/DTD/svg11.dtd">
<svg width="100%" height="100%" viewBox="0 0 225 126" version="1.1" xmlns="http://www.w3.org/2000/svg" xmlns:xlink="http://www.w3.org/1999/xlink" xml:space="preserve" style="fill-rule:evenodd;clip-rule:evenodd;stroke-linejoin:round;stroke-miterlimit:1.41421;">
    <g id="art">
        <path d="M207,50C207,43.377 201.623,38 195,38L36,38C29.377,38 24,43.377 24,50L24,74C24,80.623 29.377,86 36,86L195,86C201.623,86 207,80.623 207,74L207,50ZM37.5,41C31.705,41 27,45.705 27,51.5L27,72.5C27,78.295 31.705,83 37.5,83L104,83L104,41L37.5,41ZM88.582,67.534C88.582,65.682 89.045,64.115 89.97,62.832C90.896,61.548 92.244,60.907 94.013,60.907C95.63,60.907 96.969,61.484 98.03,62.638C99.09,63.793 99.621,65.489 99.621,67.727C99.621,69.907 99.085,71.586 98.012,72.763C96.94,73.941 95.613,74.53 94.031,74.53C92.472,74.53 91.174,73.947 90.137,72.781C89.1,71.615 88.582,69.866 88.582,67.534ZM77.437,74.53L91.535,47.372L94.101,47.372L80.056,74.53L77.437,74.53ZM156.437,74.53L170.535,47.372L173.101,47.372L159.056,74.53L156.437,74.53ZM167.582,67.534C167.582,65.682 168.045,64.115 168.97,62.832C169.896,61.548 171.244,60.907 173.013,60.907C174.63,60.907 175.969,61.484 177.03,62.638C178.09,63.793 178.621,65.489 178.621,67.727C178.621,69.907 178.085,71.586 177.012,72.763C175.94,73.941 174.613,74.53 173.031,74.53C171.472,74.53 170.174,73.947 169.137,72.781C168.1,71.615 167.582,69.866 167.582,67.534ZM130.298,60.872C130.298,57.825 130.612,55.373 131.239,53.515C131.866,51.658 132.797,50.225 134.034,49.217C135.27,48.21 136.826,47.706 138.701,47.706C140.084,47.706 141.296,47.984 142.339,48.541C143.382,49.097 144.244,49.9 144.923,50.949C145.603,51.998 146.136,53.275 146.523,54.781C146.91,56.287 147.103,58.317 147.103,60.872C147.103,63.895 146.793,66.336 146.171,68.193C145.55,70.05 144.622,71.486 143.385,72.5C142.149,73.513 140.587,74.02 138.701,74.02C136.216,74.02 134.265,73.129 132.847,71.348C131.148,69.204 130.298,65.711 130.298,60.872ZM51.298,60.872C51.298,57.825 51.612,55.373 52.239,53.515C52.866,51.658 53.797,50.225 55.034,49.217C56.27,48.21 57.826,47.706 59.701,47.706C61.084,47.706 62.296,47.984 63.339,48.541C64.382,49.097 65.244,49.9 65.923,50.949C66.603,51.998 67.136,53.275 67.523,54.781C67.91,56.287 68.103,58.317 68.103,60.872C68.103,63.895 67.793,66.336 67.171,68.193C66.55,70.05 65.622,71.486 64.385,72.5C63.149,73.513 61.587,74.02 59.701,74.02C57.216,74.02 55.265,73.129 53.847,71.348C52.148,69.204 51.298,65.711 51.298,60.872ZM41.42,73.581L41.42,67.411L30.24,67.411L30.24,64.51L42,47.811L44.584,47.811L44.584,64.51L48.064,64.51L48.064,67.411L44.584,67.411L44.584,73.581L41.42,73.581ZM94.101,63.086C93.304,63.086 92.645,63.426 92.124,64.106C91.602,64.786 91.341,66.034 91.341,67.85C91.341,69.491 91.605,70.651 92.132,71.331C92.66,72.01 93.31,72.35 94.084,72.35C94.892,72.35 95.557,72.01 96.079,71.331C96.6,70.651 96.861,69.409 96.861,67.604C96.861,65.94 96.597,64.771 96.07,64.097C95.543,63.423 94.886,63.086 94.101,63.086ZM173.101,63.086C172.304,63.086 171.645,63.426 171.124,64.106C170.602,64.786 170.341,66.034 170.341,67.85C170.341,69.491 170.605,70.651 171.132,71.331C171.66,72.01 172.31,72.35 173.084,72.35C173.892,72.35 174.557,72.01 175.079,71.331C175.6,70.651 175.861,69.409 175.861,67.604C175.861,65.94 175.597,64.771 175.07,64.097C174.543,63.423 173.886,63.086 173.101,63.086ZM133.55,60.872C133.55,65.102 134.045,67.918 135.036,69.318C136.026,70.718 137.248,71.419 138.701,71.419C140.154,71.419 141.376,70.715 142.366,69.309C143.356,67.903 143.851,65.09 143.851,60.872C143.851,56.629 143.356,53.811 142.366,52.417C141.376,51.022 140.142,50.325 138.666,50.325C137.212,50.325 136.052,50.94 135.185,52.17C134.095,53.741 133.55,56.641 133.55,60.872ZM54.55,60.872C54.55,65.102 55.045,67.918 56.036,69.318C57.026,70.718 58.248,71.419 59.701,71.419C61.154,71.419 62.376,70.715 63.366,69.309C64.356,67.903 64.851,65.09 64.851,60.872C64.851,56.629 64.356,53.811 63.366,52.417C62.376,51.022 61.142,50.325 59.666,50.325C58.212,50.325 57.052,50.94 56.185,52.17C55.095,53.741 54.55,56.641 54.55,60.872ZM41.42,64.51L41.42,52.891L33.351,64.51L41.42,64.51ZM71.918,53.999C71.918,52.159 72.38,50.594 73.306,49.305C74.232,48.016 75.574,47.372 77.332,47.372C78.949,47.372 80.288,47.949 81.348,49.103C82.409,50.257 82.939,51.954 82.939,54.192C82.939,56.372 82.403,58.05 81.331,59.228C80.258,60.406 78.937,60.995 77.367,60.995C75.808,60.995 74.51,60.415 73.473,59.254C72.436,58.094 71.918,56.342 71.918,53.999ZM150.918,53.999C150.918,52.159 151.38,50.594 152.306,49.305C153.232,48.016 154.574,47.372 156.332,47.372C157.949,47.372 159.288,47.949 160.348,49.103C161.409,50.257 161.939,51.954 161.939,54.192C161.939,56.372 161.403,58.05 160.331,59.228C159.258,60.406 157.937,60.995 156.367,60.995C154.808,60.995 153.51,60.415 152.473,59.254C151.436,58.094 150.918,56.342 150.918,53.999ZM77.42,49.551C76.634,49.551 75.981,49.891 75.46,50.571C74.938,51.251 74.677,52.499 74.677,54.315C74.677,55.967 74.941,57.13 75.468,57.804C75.996,58.478 76.646,58.815 77.42,58.815C78.216,58.815 78.876,58.475 79.397,57.795C79.919,57.116 80.179,55.874 80.179,54.069C80.179,52.405 79.916,51.236 79.388,50.562C78.861,49.888 78.205,49.551 77.42,49.551ZM156.42,49.551C155.634,49.551 154.981,49.891 154.46,50.571C153.938,51.251 153.677,52.499 153.677,54.315C153.677,55.967 153.941,57.13 154.468,57.804C154.996,58.478 155.646,58.815 156.42,58.815C157.216,58.815 157.876,58.475 158.397,57.795C158.919,57.116 159.179,55.874 159.179,54.069C159.179,52.405 158.916,51.236 158.388,50.562C157.861,49.888 157.205,49.551 156.42,49.551ZM110.277,66.831L113.599,66.549C113.845,68.167 114.417,69.382 115.313,70.197C116.21,71.011 117.291,71.419 118.556,71.419C120.08,71.419 121.369,70.844 122.423,69.696C123.478,68.547 124.005,67.024 124.005,65.126C124.005,63.321 123.499,61.897 122.485,60.854C121.471,59.811 120.144,59.29 118.504,59.29C117.484,59.29 116.564,59.521 115.744,59.984C114.923,60.447 114.279,61.047 113.81,61.786L110.839,61.399L113.336,48.163L126.15,48.163L126.15,51.186L115.867,51.186L114.478,58.112C116.025,57.034 117.648,56.495 119.347,56.495C121.597,56.495 123.496,57.274 125.043,58.833C126.589,60.391 127.363,62.395 127.363,64.844C127.363,67.176 126.683,69.192 125.324,70.891C123.671,72.977 121.416,74.02 118.556,74.02C116.212,74.02 114.299,73.364 112.817,72.051C111.335,70.739 110.488,68.999 110.277,66.831Z" style="fill:black;"/>
    </g>
</svg>
